<?xml version="1.0" standalone="no"?>
<!DOCTYPE svg PUBLIC "-//W3C//DTD SVG 20010904//EN"
 "http://www.w3.org/TR/2001/REC-SVG-20010904/DTD/svg10.dtd">
<svg version="1.0" xmlns="http://www.w3.org/2000/svg"
 width="598.000000pt" height="358.000000pt" viewBox="0 0 598.000000 358.000000"
 preserveAspectRatio="xMidYMid meet">
<metadata>
Created by potrace 1.11, written by Peter Selinger 2001-2013
</metadata>
<g transform="translate(0.000000,358.000000) scale(0.100000,-0.100000)"
fill="#000000" stroke="none">
<path d="M3907 3520 c-4 -8 -27 -80 -53 -160 -44 -137 -75 -212 -106 -253 -11
-15 -13 -5 -13 70 0 67 -5 97 -20 128 -22 46 -81 107 -122 129 l-29 14 23 -66
c39 -116 27 -277 -29 -385 l-22 -42 -11 91 c-12 93 -46 174 -88 211 -20 17
-20 17 -13 -1 3 -11 11 -52 17 -91 14 -89 1 -158 -44 -247 l-32 -63 -5 80 c-5
74 -24 134 -49 149 -4 3 -11 -34 -14 -82 -7 -112 -28 -169 -124 -338 -124
-218 -132 -245 -133 -430 0 -119 -10 -172 -48 -268 l-15 -38 -24 58 c-19 44
-23 67 -18 100 7 47 38 94 62 94 14 0 13 3 -1 25 -23 35 -21 90 4 108 24 17
17 47 -11 47 -26 0 -24 17 10 81 34 62 38 85 27 156 -10 61 -30 62 -46 3 -8
-28 -25 -50 -63 -80 -71 -57 -110 -75 -211 -101 -98 -25 -131 -45 -139 -89 -4
-16 -11 -30 -17 -30 -21 0 -136 -60 -170 -89 l-35 -30 35 9 c19 6 69 13 110
16 60 5 83 3 108 -10 17 -9 42 -16 56 -16 27 0 46 -25 46 -60 0 -12 -16 -40
-35 -63 -145 -169 -125 -368 70 -687 61 -101 85 -156 85 -199 0 -39 -33 -86
-71 -101 -44 -18 -44 -17 -29 -35 8 -9 29 -15 56 -15 37 0 51 6 85 37 51 46
86 106 95 161 6 39 3 49 -47 130 l-54 87 -1 96 c-1 53 -4 101 -8 107 -5 8 0 9
16 3 13 -4 37 -27 53 -51 31 -44 94 -111 155 -166 l35 -31 0 76 c1 82 20 131
89 229 79 111 97 193 55 261 -11 18 -18 35 -16 37 2 2 19 -1 39 -7 23 -6 52
-26 76 -54 l40 -45 16 39 c9 25 18 87 21 163 4 68 8 133 11 145 5 26 62 96
211 259 61 66 120 139 132 162 22 43 79 82 120 82 37 0 32 19 -6 22 l-38 3 35
23 c19 12 52 25 73 29 51 8 28 23 -37 23 l-48 0 48 54 c101 110 166 250 171
366 l4 75 -25 -58 c-13 -32 -36 -76 -50 -97 -34 -51 -150 -171 -140 -145 4 11
18 49 33 85 23 59 25 78 25 195 -1 88 -6 144 -16 175 -10 30 -17 40 -21 30z"/>
<path d="M2480 3284 c-25 -74 -17 -121 44 -264 32 -74 64 -151 72 -170 14 -35
14 -35 -3 -10 -10 13 -49 66 -86 117 -38 51 -84 122 -103 159 -38 73 -51 68
-40 -14 7 -52 15 -69 109 -232 37 -63 67 -119 67 -124 0 -5 -18 14 -40 41 -48
60 -80 83 -117 83 -26 0 -72 -20 -47 -20 24 0 106 -85 144 -148 21 -36 37 -68
35 -70 -2 -2 -14 3 -27 12 -25 18 -73 21 -83 7 -3 -6 7 -16 22 -23 15 -7 45
-39 65 -70 43 -64 63 -74 136 -65 79 10 145 35 211 79 86 59 99 82 82 148 -12
49 -12 54 8 81 21 29 16 40 -7 17 -15 -15 -47 14 -102 95 -44 66 -83 177 -102
290 l-12 72 -12 -40 c-23 -75 -14 -224 21 -349 4 -12 -20 26 -53 84 -32 58
-77 136 -100 174 -23 38 -46 93 -52 123 -6 29 -13 53 -15 53 -2 0 -9 -16 -15
-36z"/>
<path d="M3350 1780 c17 -31 6 -62 -29 -83 -39 -23 -85 -82 -116 -148 -34 -75
-41 -128 -21 -185 18 -53 21 -171 6 -224 l-10 -35 20 25 c41 53 81 142 91 202
6 34 33 114 61 177 28 64 53 136 56 161 5 53 -15 103 -49 120 -19 11 -20 10
-9 -10z"/>
<path d="M2916 1438 c13 -44 35 -78 59 -94 51 -33 58 -131 15 -220 -13 -26
-54 -80 -91 -119 -103 -108 -107 -128 -55 -280 l33 -100 4 95 c5 106 24 160
68 186 14 8 56 62 94 118 l67 103 -26 99 c-32 122 -44 143 -117 194 -52 36
-58 38 -51 18z"/>
<path d="M1984 1201 c-69 -42 -106 -121 -85 -182 6 -18 9 -34 7 -37 -13 -12
-93 14 -138 45 -91 63 -133 77 -228 76 -62 0 -107 -8 -165 -26 -130 -42 -202
-50 -393 -45 l-175 5 64 -33 c86 -45 181 -74 239 -74 26 0 92 12 146 26 172
44 254 43 254 -3 0 -9 -35 -51 -77 -95 l-78 -80 75 47 c41 27 104 62 140 79
92 43 133 40 242 -17 47 -25 104 -49 125 -53 24 -4 56 -23 87 -51 28 -25 63
-51 80 -60 36 -19 117 -20 189 -2 l52 12 -65 18 c-36 10 -94 23 -129 29 -35 6
-75 17 -89 24 -25 13 -24 13 24 20 27 4 63 11 79 16 17 5 80 11 140 14 106 3
174 20 189 45 5 8 -15 11 -64 11 -80 0 -153 21 -277 81 -84 40 -118 73 -129
126 -8 41 23 68 71 60 43 -7 44 -2 3 23 -41 25 -74 25 -114 1z"/>
<path d="M3918 1204 c-37 -19 -35 -32 2 -26 43 6 74 -23 66 -61 -11 -54 -44
-86 -139 -131 -120 -58 -186 -76 -269 -76 -48 0 -67 -3 -62 -11 15 -25 83 -42
189 -45 61 -3 124 -9 140 -14 17 -5 52 -12 79 -16 48 -7 49 -7 24 -20 -14 -7
-54 -18 -89 -24 -35 -6 -93 -19 -129 -29 l-65 -18 52 -12 c72 -18 153 -17 189
2 17 9 52 35 80 60 31 28 63 47 86 51 21 4 79 28 130 54 68 34 104 46 134 46
48 -1 137 -40 244 -109 l75 -47 -77 80 c-43 44 -78 86 -78 95 0 46 89 47 259
2 52 -14 116 -25 142 -25 57 0 152 29 238 74 l64 33 -175 -5 c-191 -5 -263 3
-393 45 -58 18 -103 26 -165 26 -95 1 -137 -13 -228 -76 -47 -32 -125 -57
-138 -44 -3 3 0 15 6 28 28 52 -14 147 -84 190 -37 23 -71 24 -108 3z"/>
<path d="M3245 1078 c-98 -50 -165 -150 -165 -246 0 -56 32 -168 56 -192 12
-12 14 -8 14 32 0 29 6 50 16 59 28 23 43 65 53 147 16 123 48 170 134 193 30
8 37 13 26 20 -24 15 -92 9 -134 -13z"/>
<path d="M615 910 c-58 -12 -98 -47 -135 -120 l-13 -24 31 26 c45 37 94 51
172 46 58 -3 83 -11 181 -61 122 -62 196 -80 265 -68 53 10 99 44 179 130 l30
33 -35 -20 c-65 -38 -156 -62 -232 -62 -64 0 -83 5 -148 36 -149 72 -236 96
-295 84z"/>
<path d="M5304 904 c-34 -7 -111 -35 -171 -63 -99 -46 -117 -51 -179 -51 -81
0 -127 11 -209 52 l-60 29 55 -56 c73 -75 104 -97 154 -106 69 -12 143 6 266
68 98 50 124 58 181 61 77 5 126 -9 171 -46 l31 -26 -13 24 c-54 106 -116 137
-226 114z"/>
<path d="M2991 838 c-70 -152 -44 -402 64 -623 19 -38 43 -80 53 -93 l18 -23
-4 43 -4 43 36 -52 c19 -28 50 -61 67 -74 l32 -22 -27 45 c-15 26 -31 61 -36
79 l-10 33 33 -32 c44 -43 96 -62 164 -62 l58 0 -55 30 c-86 47 -169 144 -107
126 12 -4 58 -9 102 -12 l80 -5 -58 25 c-74 31 -126 73 -127 103 0 9 7 10 26
2 15 -5 35 -7 46 -3 15 4 6 12 -42 35 -35 16 -82 50 -111 80 -63 65 -133 206
-158 320 l-19 84 -21 -47z"/>
<path d="M119 842 c10 -38 62 -69 126 -77 71 -9 99 -1 125 35 l21 30 -98 0
c-74 0 -108 5 -139 19 l-42 19 7 -26z"/>
<path d="M5855 849 c-31 -14 -63 -19 -138 -19 l-98 0 21 -30 c26 -36 54 -44
125 -35 64 8 116 39 126 78 4 15 7 27 6 26 -1 0 -20 -9 -42 -20z"/>
<path d="M2570 774 c-134 -94 -258 -144 -357 -144 -71 0 -156 30 -284 100
-115 64 -149 73 -239 68 -72 -4 -92 -10 -173 -51 -76 -39 -234 -147 -215 -147
3 0 47 20 99 44 122 57 188 76 264 76 48 0 66 -4 79 -19 34 -37 -20 -79 -104
-82 -65 -1 75 -31 181 -37 116 -8 117 -8 185 -52 66 -44 70 -45 144 -44 59 1
90 8 146 32 140 59 252 146 316 245 17 26 29 50 26 52 -2 2 -33 -16 -68 -41z"/>
<path d="M3370 814 c0 -4 14 -29 31 -56 67 -103 208 -205 354 -253 111 -38
162 -32 250 25 67 44 69 44 184 52 106 6 246 36 181 37 -46 2 -100 22 -110 41
-8 15 -6 24 10 40 44 44 198 17 360 -65 38 -19 73 -35 77 -35 20 0 -135 106
-214 147 -81 41 -101 47 -173 51 -90 5 -128 -6 -233 -65 -221 -125 -326 -133
-512 -40 -33 16 -87 48 -120 71 -79 55 -85 58 -85 50z"/>
</g>
</svg>
